<svg width="861" height="274" xmlns="http://www.w3.org/2000/svg" xmlns:xlink="http://www.w3.org/1999/xlink" xml:space="preserve" overflow="hidden"><defs><linearGradient x1="371.678" y1="285.235" x2="454.934" y2="201.98" gradientUnits="userSpaceOnUse" spreadMethod="pad" id="fill0"><stop offset="0" stop-color="#9C7324"/><stop offset="0.22" stop-color="#EFDB6A"/><stop offset="0.4" stop-color="#A8822E"/><stop offset="0.62" stop-color="#E8D264"/><stop offset="0.92" stop-color="#9C7324"/><stop offset="1" stop-color="#9C7324"/></linearGradient><linearGradient x1="413.175" y1="279.431" x2="413.175" y2="201.541" gradientUnits="userSpaceOnUse" spreadMethod="pad" id="fill1"><stop offset="0" stop-color="#9C7324"/><stop offset="0.14" stop-color="#D0B450"/><stop offset="0.4" stop-color="#A8822E"/><stop offset="0.72" stop-color="#CEB24E"/><stop offset="0.92" stop-color="#9C7324"/><stop offset="1" stop-color="#9C7324"/></linearGradient><linearGradient x1="376.248" y1="277.973" x2="455.999" y2="203.559" gradientUnits="userSpaceOnUse" spreadMethod="pad" id="fill2"><stop offset="0" stop-color="#465053"/><stop offset="0.2" stop-color="#697071"/><stop offset="0.58" stop-color="#A8A8A7"/><stop offset="0.86" stop-color="#CFCBC9"/><stop offset="1" stop-color="#DED9D6"/><stop offset="1" stop-color="#E5E2DF"/></linearGradient><linearGradient x1="238.878" y1="343.35" x2="392.501" y2="343.35" gradientUnits="userSpaceOnUse" spreadMethod="pad" id="fill3"><stop offset="0" stop-color="#0E4D89"/><stop offset="0.99" stop-color="#087DBA"/><stop offset="1" stop-color="#087DBA"/></linearGradient><linearGradient x1="410.24" y1="357.92" x2="442.232" y2="357.92" gradientUnits="userSpaceOnUse" spreadMethod="pad" id="fill4"><stop offset="0" stop-color="#0E4D89"/><stop offset="0.99" stop-color="#087DBA"/><stop offset="1" stop-color="#087DBA"/></linearGradient><linearGradient x1="426.166" y1="314.816" x2="426.243" y2="290.553" gradientUnits="userSpaceOnUse" spreadMethod="pad" id="fill5"><stop offset="0" stop-color="#0E4D89"/><stop offset="0.99" stop-color="#087DBA"/><stop offset="1" stop-color="#087DBA"/></linearGradient><linearGradient x1="453.934" y1="354.593" x2="527.777" y2="354.593" gradientUnits="userSpaceOnUse" spreadMethod="pad" id="fill6"><stop offset="0" stop-color="#0E4D89"/><stop offset="0.99" stop-color="#087DBA"/><stop offset="1" stop-color="#087DBA"/></linearGradient><linearGradient x1="534.077" y1="345.939" x2="585.686" y2="345.939" gradientUnits="userSpaceOnUse" spreadMethod="pad" id="fill7"><stop offset="0" stop-color="#0E4D89"/><stop offset="0.99" stop-color="#087DBA"/><stop offset="1" stop-color="#087DBA"/></linearGradient><linearGradient x1="594.78" y1="344.892" x2="680.774" y2="344.892" gradientUnits="userSpaceOnUse" spreadMethod="pad" id="fill8"><stop offset="0" stop-color="#0E4D89"/><stop offset="0.99" stop-color="#087DBA"/><stop offset="1" stop-color="#087DBA"/></linearGradient><linearGradient x1="692.616" y1="359.883" x2="766.46" y2="359.883" gradientUnits="userSpaceOnUse" spreadMethod="pad" id="fill9"><stop offset="0" stop-color="#0E4D89"/><stop offset="0.99" stop-color="#087DBA"/><stop offset="1" stop-color="#087DBA"/></linearGradient><linearGradient x1="780.572" y1="358.332" x2="828.387" y2="358.332" gradientUnits="userSpaceOnUse" spreadMethod="pad" id="fill10"><stop offset="0" stop-color="#0E4D89"/><stop offset="0.99" stop-color="#087DBA"/><stop offset="1" stop-color="#087DBA"/></linearGradient><linearGradient x1="829.453" y1="359.089" x2="908.904" y2="359.089" gradientUnits="userSpaceOnUse" spreadMethod="pad" id="fill11"><stop offset="0" stop-color="#0E4D89"/><stop offset="0.99" stop-color="#087DBA"/><stop offset="1" stop-color="#087DBA"/></linearGradient><linearGradient x1="912.25" y1="359.126" x2="986.01" y2="359.126" gradientUnits="userSpaceOnUse" spreadMethod="pad" id="fill12"><stop offset="0" stop-color="#0E4D89"/><stop offset="0.99" stop-color="#087DBA"/><stop offset="1" stop-color="#087DBA"/></linearGradient><linearGradient x1="988.216" y1="375.669" x2="1069.12" y2="375.669" gradientUnits="userSpaceOnUse" spreadMethod="pad" id="fill13"><stop offset="0" stop-color="#0E4D89"/><stop offset="0.99" stop-color="#087DBA"/><stop offset="1" stop-color="#087DBA"/></linearGradient></defs><g transform="translate(-223 -168)"><path d="M449.485 200.54C444.597 200.737 440.793 204.849 440.989 209.728 441.073 211.961 442.017 213.952 443.447 215.457L428.914 236.037C428.129 235.71 427.278 235.532 426.372 235.57 425.465 235.607 424.624 235.85 423.876 236.233L419.306 233.009C419.306 232.85 419.343 232.691 419.334 232.523 419.203 229.196 416.399 226.607 413.072 226.738 409.745 226.869 407.156 229.672 407.287 233 407.362 234.803 408.221 236.364 409.521 237.42L404.436 249.72C403.819 249.58 403.184 249.486 402.52 249.514 398.483 249.673 395.342 253.075 395.501 257.113 395.501 257.281 395.548 257.44 395.567 257.608L387.239 258.879C386.08 257.58 384.389 256.767 382.51 256.842 379.183 256.973 376.594 259.776 376.725 263.104 376.772 264.178 377.117 265.169 377.641 266.02L366.706 280.245C368.332 280.338 369.949 280.403 371.575 280.431L380.716 268.534C381.426 268.786 382.183 268.917 382.977 268.889 386.295 268.758 388.875 265.973 388.763 262.664L397.109 261.384C398.511 263.122 400.67 264.225 403.081 264.122 407.119 263.964 410.259 260.562 410.1 256.524 410.025 254.599 409.193 252.898 407.932 251.636L413.25 238.757C413.343 238.757 413.437 238.776 413.539 238.776 415.231 238.71 416.726 237.953 417.773 236.785L421.11 239.14C420.745 239.963 420.54 240.86 420.577 241.813 420.708 245.14 423.512 247.729 426.839 247.598 430.166 247.468 432.755 244.664 432.624 241.336 432.587 240.374 432.306 239.486 431.877 238.701L446.737 217.653C447.802 218.055 448.961 218.251 450.167 218.205 455.055 218.008 458.85 213.896 458.663 209.017 458.466 204.129 454.354 200.335 449.475 200.522Z" fill="url(#fill0)" transform="matrix(1.00253 0 0 1 0.000104058 0.97865)"/><path d="M371.089 279.431C370.276 279.413 369.472 279.385 368.659 279.347L378.846 266.085 378.482 265.496C378.005 264.721 377.744 263.907 377.716 263.066 377.603 260.3 379.772 257.954 382.538 257.842L382.557 257.842C384.155 257.842 385.52 258.468 386.482 259.543L386.847 259.945 396.66 258.44 396.557 257.487 396.52 257.216C396.361 253.58 399.081 250.645 402.558 250.505L402.604 250.505C403.212 250.505 403.67 250.561 404.212 250.692L405.034 250.879 410.726 237.103 410.147 236.635C408.997 235.701 408.334 234.392 408.277 232.953 408.165 230.177 410.334 227.841 413.1 227.728L413.306 227.728C416.016 227.728 418.222 229.85 418.325 232.56L418.269 233.504 423.783 237.402 424.325 237.131C424.998 236.785 425.699 236.598 426.409 236.57L426.446 236.57C427.269 236.57 427.904 236.701 428.531 236.962L429.269 237.271 444.737 215.363 444.167 214.765C442.83 213.363 442.055 211.56 441.989 209.69 441.821 205.363 445.204 201.709 449.522 201.541L449.84 201.541C454.074 201.541 457.513 204.849 457.672 209.074 457.756 211.167 457.018 213.167 455.597 214.709 454.176 216.251 452.242 217.139 450.148 217.223L449.84 217.223C448.905 217.223 447.98 217.064 447.111 216.737L446.391 216.466 430.727 238.654 431.026 239.206C431.409 239.916 431.624 240.654 431.652 241.402 431.708 242.748 431.232 244.028 430.325 245.009 429.409 246 428.166 246.57 426.83 246.617L426.624 246.617C423.914 246.617 421.708 244.495 421.605 241.785 421.577 241.037 421.727 240.29 422.054 239.561L422.39 238.813 417.652 235.467 417.054 236.121C416.138 237.14 414.885 237.729 413.521 237.776 413.437 237.766 413.362 237.757 413.287 237.757L412.614 237.757C412.614 237.757 406.782 251.87 406.782 251.87L407.259 252.346C408.408 253.486 409.072 254.982 409.128 256.561 409.268 260.038 406.548 262.982 403.072 263.113L402.819 263.113C400.922 263.113 399.128 262.253 397.922 260.739L397.557 260.29 387.763 261.786 387.791 262.674C387.884 265.431 385.716 267.758 382.968 267.87L382.931 267.87C382.192 267.87 381.632 267.767 381.09 267.571L380.407 267.328 371.127 279.403Z" fill="url(#fill1)" transform="matrix(1.00253 0 0 1 0.000104058 0.97865)"/><path d="M371.042 279.329C370.248 279.31 369.463 279.282 368.668 279.244L378.931 266.141 378.566 265.44C378.099 264.683 377.846 263.879 377.809 263.057 377.697 260.347 379.828 258.047 382.538 257.935 384.099 257.935 385.426 258.515 386.398 259.608L386.763 260.01 396.66 258.543 396.642 257.487 396.604 257.216C396.529 255.487 397.118 253.842 398.268 252.599 399.38 251.384 400.903 250.683 402.548 250.617 403.165 250.617 403.614 250.673 404.175 250.804L404.997 250.991 410.801 237.159 410.193 236.57C409.072 235.654 408.418 234.374 408.362 232.962 408.259 230.243 410.38 227.953 413.091 227.841L413.296 227.841C415.951 227.841 418.11 229.915 418.212 232.57L418.156 233.504 423.708 237.486 424.353 237.215C425.007 236.878 425.699 236.691 426.39 236.663 427.194 236.663 427.83 236.785 428.465 237.047L429.204 237.355 444.793 215.41 444.214 214.691C442.896 213.307 442.129 211.532 442.064 209.681 441.896 205.41 445.232 201.802 449.503 201.634L449.812 201.634C453.99 201.634 457.382 204.896 457.55 209.074 457.635 211.139 456.906 213.12 455.494 214.634 454.092 216.158 452.176 217.036 450.111 217.121L449.802 217.121C448.877 217.121 447.971 216.962 447.111 216.635L446.391 216.364 430.605 238.589 430.895 239.243C431.278 239.944 431.484 240.673 431.512 241.393 431.559 242.71 431.101 243.963 430.204 244.935 429.306 245.897 428.091 246.458 426.774 246.514L426.577 246.514C423.923 246.514 421.764 244.439 421.652 241.785 421.624 241.056 421.773 240.318 422.091 239.598L422.428 238.85 417.661 235.383 416.932 236.056C416.035 237.047 414.801 237.626 413.474 237.682 413.399 237.673 413.324 237.663 413.24 237.663L412.567 237.663C412.567 237.663 406.642 251.842 406.642 251.842L407.137 252.421C408.259 253.543 408.922 255.01 408.978 256.571 409.044 258.225 408.455 259.814 407.334 261.029 406.212 262.253 404.67 262.954 403.016 263.02L402.763 263.02C400.894 263.02 399.137 262.169 397.941 260.683L397.576 260.234 387.688 261.692 387.632 262.683C387.725 265.384 385.604 267.665 382.903 267.777 382.174 267.777 381.613 267.683 381.052 267.487L380.37 267.244 371.005 279.31Z" fill="url(#fill2)" transform="matrix(1.00253 0 0 1 0.000104058 0.97865)"/><path d="M423.11 177.708C396.361 179.185 374.211 200.204 371.398 226.841 370.528 235.121 371.528 243.056 373.977 250.327 374.575 252.094 376.501 253.038 378.258 252.44 378.276 252.44 378.304 252.421 378.323 252.421 380.099 251.813 381.033 249.907 380.435 248.122 378.089 241.168 377.267 233.523 378.435 225.56 381.576 204.242 398.922 187.353 420.325 184.802 450.989 181.138 476.916 206.41 474.392 236.878 472.458 260.188 453.606 279.02 430.297 280.936 417.988 281.946 406.539 278.301 397.492 271.59 396.501 270.852 395.193 270.665 394.062 271.169 394.034 271.179 394.006 271.197 393.978 271.207 391.604 272.282 391.277 275.487 393.37 277.039 403.371 284.488 415.979 288.637 429.587 287.824 457.092 286.189 479.477 263.945 481.252 236.448 483.402 203.279 456.205 175.885 423.091 177.708Z" fill="#B5B7B9" transform="matrix(1.00253 0 0 1 0.000104058 0.97865)"/><path d="M364.911 402.576 364.911 330.359 315.694 381.641 266.478 330.359 266.478 378.884C266.478 394.679 257.281 402.576 238.878 402.576L238.878 306.9C238.878 291.722 248.542 284.133 267.861 284.133L315.694 338.181 363.762 284.133C382.921 284.133 392.511 291.488 392.511 306.208L392.511 379.575C392.511 394.913 383.314 402.576 364.911 402.576Z" fill="url(#fill3)" transform="matrix(1.00253 0 0 1 0.000104058 0.97865)"/><path d="M410.446 383.903 410.231 316.517C420.727 318.405 431.512 318.377 441.998 316.414L442.223 383.809C442.232 387.94 440.578 391.847 437.578 394.81 434.578 397.772 430.596 399.408 426.381 399.427 417.633 399.445 410.483 392.483 410.446 383.912Z" fill="url(#fill4)" transform="matrix(1.00253 0 0 1 0.000104058 0.97865)"/><path d="M418.904 290.591 433.568 290.591 433.568 314.807 418.904 314.807Z" fill="url(#fill5)" transform="matrix(0.00314954 0.999995 -1.00253 0.00314159 729.412 -123.521)"/><path d="M478 314.293 478.991 325.826C481.673 321.732 484.981 318.526 488.935 316.227 492.879 313.928 497.281 312.778 502.141 312.778 510.188 312.778 516.469 315.508 521.002 320.975 525.525 326.443 527.796 335.116 527.796 347.004L527.796 396.408 502.141 396.408 502.141 346.929C502.141 341.724 501.309 338.013 499.636 335.807 497.963 333.602 495.533 332.508 492.346 332.508 489.617 332.508 487.159 332.994 484.981 333.948 482.804 334.91 480.981 336.275 479.514 338.051L479.514 396.408 453.943 396.408 453.943 314.293 478 314.293Z" fill="url(#fill6)" transform="matrix(1.00253 0 0 1 0.000104058 0.97865)"/><path d="M571.19 293.881 571.19 314.293 584.172 314.293 584.172 332.05 571.19 332.05 571.19 369.697C571.19 372.631 571.789 374.743 572.975 376.033 574.162 377.323 575.77 377.968 577.798 377.968 579.116 377.968 580.163 377.921 580.948 377.818 581.733 377.716 582.733 377.519 583.948 377.211L585.696 396.184C583.116 396.838 580.789 397.305 578.714 397.586 576.639 397.866 574.181 398.006 571.349 398.006 562.9 398.006 556.489 395.754 552.115 391.249 547.741 386.744 545.554 379.613 545.554 369.846L545.554 332.05 534.096 332.05 534.096 314.293 545.554 314.293 545.554 293.881 571.209 293.881Z" fill="url(#fill7)" transform="matrix(1.00253 0 0 1 0.000104058 0.97865)"/><path d="M655.128 370.855C655.128 366.911 653.838 363.883 651.259 361.79 648.679 359.687 643.997 357.453 637.221 355.07 623.51 350.621 613.323 345.873 606.678 340.836 600.023 335.798 596.696 328.555 596.696 319.096 596.696 309.638 600.565 302.348 608.304 296.628 616.043 290.908 625.884 288.049 637.828 288.049 650.427 288.049 660.568 290.993 668.26 296.89 675.951 302.787 679.671 311.096 679.419 321.816L679.269 322.274 654.38 322.274C654.38 317.068 652.96 313.283 650.128 310.928 647.296 308.573 643.016 307.395 637.305 307.395 632.651 307.395 628.978 308.535 626.305 310.806 623.622 313.087 622.286 315.891 622.286 319.227 622.286 322.564 623.66 325.059 626.417 327.003 629.174 328.957 634.324 331.396 641.857 334.331 654.661 338.125 664.344 342.752 670.923 348.219 677.503 353.687 680.793 361.173 680.793 370.687 680.793 380.202 676.998 388.006 669.409 393.492 661.82 398.978 651.754 401.726 639.202 401.726 626.65 401.726 616.117 398.782 607.444 392.884 598.762 386.987 594.556 377.716 594.808 365.07L594.958 364.612 619.931 364.612C619.931 371.042 621.51 375.603 624.678 378.314 627.837 381.024 632.688 382.379 639.212 382.379 644.576 382.379 648.567 381.314 651.203 379.192 653.829 377.071 655.147 374.286 655.147 370.846Z" fill="url(#fill8)" transform="matrix(1.00253 0 0 1 0.000104058 0.97865)"/><path d="M742.702 387.847C740.272 392.296 737.122 395.726 733.253 398.128 729.383 400.53 724.916 401.735 719.86 401.735 711.364 401.735 704.691 398.754 699.859 392.782 695.027 386.809 692.616 377.575 692.616 365.08L692.616 318.031 718.187 318.031 718.187 365.238C718.187 371.669 719.009 376.071 720.654 378.445 722.299 380.828 724.841 382.015 728.281 382.015 731.01 382.015 733.412 381.632 735.486 380.875 737.561 380.118 739.328 378.977 740.795 377.463L740.795 318.04 766.45 318.04 766.45 400.156 745.805 400.156 742.692 387.866Z" fill="url(#fill9)" transform="matrix(1.00253 0 0 1 0.000104058 0.97865)"/><path d="M825.957 339.892 817.611 339.817C814.676 339.817 812.274 340.359 810.405 341.452 808.536 342.537 807.143 344.069 806.228 346.041L806.228 400.156 780.572 400.156 780.572 318.04 804.704 318.04 805.611 330.106C807.33 325.807 809.611 322.47 812.443 320.087 815.275 317.713 818.592 316.517 822.387 316.517 823.546 316.517 824.583 316.592 825.499 316.741 826.415 316.891 827.369 317.124 828.387 317.424L825.957 339.892Z" fill="url(#fill10)" transform="matrix(1.00253 0 0 1 0.000104058 0.97865)"/><path d="M867.473 366.295 868.987 375.024 869.445 375.099 871.118 366.295 881.969 318.031 908.914 318.031 882.202 400.146 856.173 400.146 829.462 318.031 856.482 318.031 867.482 366.295Z" fill="url(#fill11)" transform="matrix(1.00253 0 0 1 0.000104058 0.97865)"/><path d="M952.093 401.735C939.644 401.735 929.896 397.969 922.84 390.426 915.783 382.884 912.25 373.351 912.25 361.818L912.25 358.93C912.25 346.387 915.578 336.163 922.232 328.265 928.886 320.377 938.513 316.452 951.112 316.498 962.196 316.498 970.776 319.816 976.879 326.443 982.973 333.069 986.02 342.153 986.02 353.687L986.02 367.117 938.971 367.117 938.821 367.575C939.223 371.874 940.822 375.351 943.607 378.005 946.392 380.66 950.383 381.987 955.598 381.987 960.504 381.987 964.589 381.585 967.851 380.772 971.112 379.959 974.842 378.669 979.047 376.902L985.197 392.539C981.655 395.118 976.898 397.296 970.925 399.062 964.953 400.829 958.682 401.717 952.102 401.717ZM951.102 336.247C947.009 336.247 943.981 337.546 942.036 340.153 940.083 342.761 938.962 346.284 938.663 350.743L938.812 351.126 960.972 351.126 960.972 349.154C960.972 344.901 960.224 341.695 958.729 339.518 957.233 337.34 954.691 336.256 951.102 336.256Z" fill="url(#fill12)" transform="matrix(1.00253 0 0 1 0.000104058 0.97865)"/><path d="M1027.68 363.949 1027.75 364.556 1028.21 364.556 1041.8 318.031 1069.12 318.031 1036.4 412.362C1033.87 418.437 1030.61 423.437 1026.62 427.39 1022.62 431.334 1016.27 433.307 1007.57 433.307 1005.35 433.307 1003.52 433.166 1002.1 432.886 1000.68 432.606 998.459 432.092 995.422 431.334L998.534 413.044C999.244 413.194 999.777 413.306 1000.13 413.39 1000.49 413.465 1000.95 413.502 1001.5 413.502 1005.54 413.502 1008.51 412.904 1010.38 411.717 1012.24 410.53 1013.64 408.745 1014.55 406.371L1016.6 401.062 988.216 318.04 1015.46 318.04 1027.68 363.958Z" fill="url(#fill13)" transform="matrix(1.00253 0 0 1 0.000104058 0.97865)"/></g></svg>